<?xml version="1.0" standalone="no"?>
<!DOCTYPE svg PUBLIC "-//W3C//DTD SVG 20010904//EN"
 "http://www.w3.org/TR/2001/REC-SVG-20010904/DTD/svg10.dtd">
<svg version="1.0" xmlns="http://www.w3.org/2000/svg"
 width="465.000000pt" height="465.000000pt" viewBox="0 0 465.000000 465.000000"
 preserveAspectRatio="xMidYMid meet">

<g transform="translate(0.000000,465.000000) scale(0.100000,-0.100000)"
fill="#000000" stroke="none">
<path d="M3015 4588 c-116 -42 -262 -193 -432 -448 -132 -199 -370 -618 -493
-872 l-71 -146 -67 -20 c-173 -51 -395 -91 -509 -92 -75 0 -94 -10 -72 -37 24
-28 249 -4 472 49 70 17 130 28 133 25 9 -9 -399 -820 -494 -983 -49 -84 -115
-187 -146 -230 -88 -120 -205 -254 -222 -254 -8 0 -68 18 -132 39 -271 91
-457 69 -542 -66 -83 -130 7 -253 185 -253 130 0 268 52 419 158 l78 55 81
-39 c104 -50 185 -103 386 -252 91 -67 166 -120 168 -119 1 2 -15 44 -37 93
l-39 89 -251 127 c-139 70 -254 129 -258 132 -3 3 42 54 99 114 321 333 630
806 914 1400 l49 104 80 40 c513 258 967 810 966 1174 0 81 -22 137 -69 177
-52 43 -132 58 -196 35z m143 -58 c51 -31 72 -75 72 -150 0 -268 -284 -688
-646 -956 -85 -63 -291 -194 -304 -194 -17 0 -11 17 44 133 30 61 98 211 151
332 208 471 362 727 488 814 67 46 141 54 195 21z m-2362 -2914 c85 -13 249
-59 267 -76 18 -16 -161 -126 -259 -160 -192 -67 -344 -32 -344 79 0 90 97
166 215 170 17 0 71 -5 121 -13z"/>
<path d="M1115 4515 c-114 -19 -298 -73 -397 -118 -262 -120 -457 -338 -514
-577 -30 -123 -12 -273 46 -395 78 -161 261 -308 472 -379 113 -38 248 -66
248 -52 0 28 -30 45 -116 64 -275 62 -489 221 -577 427 -57 134 -48 314 23
457 140 282 422 458 836 523 155 25 475 17 624 -15 125 -27 254 -71 328 -113
62 -35 164 -125 189 -168 20 -33 53 -39 53 -11 0 27 -47 88 -114 150 -96 87
-271 159 -486 199 -120 22 -494 27 -615 8z"/>
<path d="M542 3453 c2 -12 21 -20 69 -29 87 -16 140 -44 211 -112 104 -99 176
-231 328 -602 51 -124 130 -314 176 -423 46 -109 84 -203 84 -209 0 -5 5 -8
12 -6 12 4 147 245 147 265 1 7 -50 135 -112 285 -141 337 -162 393 -187 492
-39 154 -19 245 64 285 25 13 76 26 113 29 51 5 68 11 68 22 0 13 -62 15 -488
18 -455 2 -488 1 -485 -15z"/>
<path d="M2942 3453 c2 -14 18 -20 66 -26 84 -10 144 -40 192 -94 55 -63 75
-127 74 -243 -1 -123 -20 -200 -104 -434 -93 -260 -239 -666 -354 -991 -83
-233 -250 -697 -263 -732 -3 -6 5 -17 17 -23 27 -14 22 -27 205 485 234 655
500 1380 554 1513 152 369 274 495 502 520 49 5 65 11 67 25 3 16 -25 17 -478
17 -453 0 -481 -1 -478 -17z"/>
<path d="M1595 1963 c-44 -59 -81 -110 -83 -114 -3 -7 48 -133 196 -484 28
-66 91 -219 141 -340 49 -121 121 -294 159 -385 38 -91 104 -250 147 -355 42
-104 84 -203 92 -218 26 -51 43 -30 95 118 27 77 76 214 109 303 61 164 64
188 24 180 -13 -2 -29 -34 -54 -107 -38 -109 -56 -132 -67 -84 -7 29 -30 85
-359 863 -108 256 -222 525 -253 598 -31 72 -58 132 -61 132 -3 0 -42 -49 -86
-107z"/>
<path d="M3530 1825 c-136 -22 -290 -83 -395 -155 -126 -88 -252 -270 -187
-270 10 0 26 17 40 43 32 60 146 172 223 219 137 82 274 117 494 125 136 4
174 2 257 -15 129 -27 213 -69 283 -143 75 -79 106 -148 113 -255 17 -280
-189 -564 -498 -687 -116 -46 -209 -60 -390 -60 -145 0 -183 4 -315 31 -244
51 -492 145 -846 323 -67 33 -123 58 -126 56 -2 -3 20 -58 49 -122 l53 -118
60 -27 c138 -61 373 -128 563 -159 158 -27 471 -45 632 -38 162 8 267 34 405
103 286 142 464 395 465 661 0 142 -36 230 -134 328 -77 77 -146 116 -261 148
-92 26 -361 33 -485 12z"/>
</g>
</svg>
